<?xml version="1.0" encoding="utf-8"?>
<!-- Generator: Adobe Illustrator 18.0.0, SVG Export Plug-In . SVG Version: 6.00 Build 0)  -->
<!DOCTYPE svg PUBLIC "-//W3C//DTD SVG 1.1//EN" "http://www.w3.org/Graphics/SVG/1.1/DTD/svg11.dtd">
<svg version="1.1" id="Layer_1" xmlns="http://www.w3.org/2000/svg" xmlns:xlink="http://www.w3.org/1999/xlink" x="0px" y="0px"
	 viewBox="20.9 47.6 800 500" enable-background="new 20.9 47.6 800 500" xml:space="preserve">
<g>
	<path d="M-289.7-160.9h-2.2v-28.3h2.2v12.4c1.4-2.9,3.8-3.6,5.9-3.6c5.1,0,7.9,4.8,7.9,10.3c0,4.4-1.9,9.6-7.8,9.6
		c-4.2,0-5.6-2.9-6-3.8V-160.9z M-284.2-178.3c-0.8,0-1.7,0.2-2.4,0.6c-2.4,1.3-3.1,4.3-3.1,7.2c0,5.2,2.1,7.9,5.6,7.9
		c4.5,0,5.6-3.9,5.6-7.5C-278.4-175.1-280.6-178.3-284.2-178.3z"/>
	<path d="M-255-165.9c-0.3,0.7-0.8,1.8-1.8,2.9c-0.6,0.6-2.4,2.6-6.5,2.6c-6.3,0-9.1-4.9-9.1-10.2c0-6.3,4.2-9.8,8.8-9.8
		c5.8,0,8.8,5,8.6,10h-14.8c0,1,0,2.5,0.6,3.9c1.5,3.9,5,3.9,5.9,3.9c2.1,0,4.5-0.7,6.2-4L-255-165.9z M-257.7-172.4
		c-0.2-1.7-0.7-3.4-2-4.5c-0.8-0.7-2.1-1.4-3.9-1.4c-3.3,0-5.7,2.3-6.2,6L-257.7-172.4L-257.7-172.4z"/>
	<path d="M-246.4-164.9c0,1.8,0.7,2.3,1.6,2.3c0.8,0,1.8-0.6,2.6-1.2v2.3c-0.9,0.7-1.9,0.9-3.1,0.9c-3.5,0-3.5-2-3.5-5.6V-178h-4v-2
		h4v-8.1h2.2v8.1h4.2v2h-4.2L-246.4-164.9L-246.4-164.9z"/>
	<path d="M-221.9-160.9c-2.9,0-4.9-0.3-5.1-3.2v-0.4c-0.1,0.2-0.1,0.3-0.2,0.4c-1.1,2.3-3.9,3.5-6.6,3.5c-4.8,0-6-3.2-6-5.2
		c0-4.4,4.5-5.4,10.5-6.8l2.2-0.6v-0.9c0-1.4,0-4.4-4.7-4.4s-4.9,2.6-5,4.7l-2.6-0.5c0.2-0.9,0.4-2.1,1.1-3.3c1.4-2.1,3.8-3,6.4-3
		c2.3,0,5.9,0.6,6.7,3.7c0.3,0.9,0.3,1.8,0.3,3.6v6.2c0,3.4,0,4.2,2.9,4.1L-221.9-160.9L-221.9-160.9z M-227-171l-1.2,0.3
		c-2.6,0.7-3.7,1-4.8,1.3c-2.1,0.6-4.6,1.3-4.6,3.6c0,1.5,1.1,3.2,3.8,3.2c1.8,0,3.8-0.8,5-2.1c1.5-1.5,1.6-3,1.6-4.9L-227-171
		L-227-171z"/>
	<path d="M-216.3-160.9h-2.2v-28.3h2.2v12.4c1.4-2.9,3.8-3.6,5.9-3.6c5.1,0,7.9,4.8,7.9,10.3c0,4.4-1.9,9.6-7.8,9.6
		c-4.2,0-5.6-2.9-6-3.8L-216.3-160.9L-216.3-160.9z M-210.9-178.3c-0.8,0-1.7,0.2-2.4,0.6c-2.4,1.3-3.1,4.3-3.1,7.2
		c0,5.2,2.1,7.9,5.6,7.9c4.5,0,5.6-3.9,5.6-7.5C-205-175.1-207.2-178.3-210.9-178.3z"/>
	<path d="M-181.1-160.9c-2.9,0-4.9-0.3-5.1-3.2v-0.4c-0.1,0.2-0.1,0.3-0.2,0.4c-1.1,2.3-3.9,3.5-6.6,3.5c-4.8,0-6-3.2-6-5.2
		c0-4.4,4.5-5.4,10.5-6.8l2.2-0.6v-0.9c0-1.4,0-4.4-4.7-4.4s-4.9,2.6-5,4.7l-2.6-0.5c0.2-0.9,0.4-2.1,1.1-3.3c1.4-2.1,3.8-3,6.4-3
		c2.3,0,5.9,0.6,6.7,3.7c0.3,0.9,0.3,1.8,0.3,3.6v6.2c0,3.4,0,4.2,2.9,4.1V-160.9z M-186.2-171l-1.2,0.3c-2.6,0.7-3.7,1-4.8,1.3
		c-2.1,0.6-4.6,1.3-4.6,3.6c0,1.5,1.1,3.2,3.8,3.2c1.8,0,3.8-0.8,5-2.1c1.5-1.5,1.6-3,1.6-4.9L-186.2-171L-186.2-171z"/>
	<path d="M-169.9-171.6c1.2,0.3,2.8,0.7,4,2.1c0.8,0.9,1.3,2.1,1.3,3.4c0,2.8-2.2,5.9-7.2,5.9c-2.4,0-4-0.8-4.8-1.4
		c-1.4-0.9-2.2-2.1-2.9-3.7l2.3-0.8c0.5,1.7,2.1,3.8,5.3,3.8s4.9-1.8,4.9-3.7c0-2.5-2.5-3.1-4.1-3.4c-0.7-0.2-1.5-0.3-2.2-0.5
		c-1.8-0.4-4.9-1.2-4.9-4.9c0-2,1.1-5.3,6.8-5.3c1.9,0,3.4,0.5,4.5,1.1c1.7,1,2.2,2.6,2.3,3.3l-2.2,0.6c-0.1-0.6-0.4-1.4-1.7-2.1
		c-0.8-0.5-1.9-0.7-3-0.7c-1.4,0-4.4,0.4-4.4,3.2c0,2.1,1.9,2.6,4,3.1L-169.9-171.6z"/>
	<path d="M-143.3-165.9c-0.3,0.7-0.8,1.8-1.8,2.9c-0.6,0.6-2.4,2.6-6.5,2.6c-6.3,0-9.1-4.9-9.1-10.2c0-6.3,4.2-9.8,8.8-9.8
		c5.8,0,8.8,5,8.6,10h-14.8c0,1,0,2.5,0.6,3.9c1.5,3.9,5,3.9,5.9,3.9c2.1,0,4.5-0.7,6.2-4L-143.3-165.9z M-146-172.4
		c-0.2-1.7-0.7-3.4-2-4.5c-0.8-0.7-2.1-1.4-3.9-1.4c-3.3,0-5.7,2.3-6.2,6L-146-172.4L-146-172.4z"/>
	<path d="M-283.4,198.9c-7.4,0-9.9-7.7-9.9-14.6c0-8.2,3.2-14.7,10-14.7c8.3,0,10,9.2,9.8,15.2
		C-273.6,191.9-276.4,198.9-283.4,198.9z M-283.4,171.7c-4.9,0-7.3,5.5-7.3,12.4c0,2.3,0.4,6.9,2.1,9.5c1.3,2,3.1,2.9,5.2,2.9
		c6.6,0,7.2-8.5,7.3-11.8C-276,177-278.5,171.7-283.4,171.7z"/>
	<path d="M-251.4,198.3h-17.9v-2.2l0.6-0.4c1.8-1.1,4.6-2.9,8.3-6.1c3.6-3,7.3-6.3,7.3-11.3c0-4.6-3.2-6.7-7-6.7
		c-4.8,0-6.9,3.5-6.9,6.3c0,2.5,1.4,4.2,2,4.8l-3.3-0.4c-0.3-0.6-1-2.3-1-4.7c0-5,3.8-8.2,9.2-8.2c6.3,0,9.5,4,9.5,9
		c0,4.3-2.6,7.6-5.3,10.2c-3.7,3.6-8.7,6.8-9.8,7.4h14.2v2.3H-251.4z"/>
	<path d="M-243.4,193.7v4.7h-3.2v-4.7H-243.4z"/>
	<path d="M-230.1,198.9c-7.4,0-9.9-7.7-9.9-14.6c0-8.2,3.2-14.7,10-14.7c8.3,0,10,9.2,9.8,15.2C-220.2,191.9-223,198.9-230.1,198.9z
		 M-230,171.7c-4.9,0-7.3,5.5-7.3,12.4c0,2.3,0.4,6.9,2.1,9.5c1.3,2,3.1,2.9,5.2,2.9c6.6,0,7.2-8.5,7.3-11.8
		C-222.6,177-225.2,171.7-230,171.7z"/>
	<path d="M-198.7,176.7c-0.2-1.4-0.7-4.9-5.8-4.9c-2.8,0-5.9,1-7.4,6.4c-0.4,1.6-0.7,3.7-0.8,5.1c1.8-2.6,4.5-3.9,7.7-3.9
		c6.1,0,9.2,4.4,9.2,9.8c0,6-3.9,9.7-9.5,9.7c-9.8,0-9.9-10.5-9.9-13.8c0-3,0.3-8.2,3-11.8c2.1-2.9,4.9-3.7,7.7-3.7
		c4.3,0,7.2,2.1,8.4,6.3L-198.7,176.7z M-200.4,183.5c-1.7-1.8-3.9-1.9-4.8-1.9c-4,0-7.4,2.8-7.4,6.7c0,0.8,0.5,8.3,7.3,8.3
		c1.9,0,3.7-0.5,5.2-2.4c1.5-1.9,1.6-4,1.6-5.3C-198.5,187.7-198.6,185.3-200.4,183.5z"/>
	<path d="M-189.3,193.7v4.7h-3.2v-4.7H-189.3z"/>
	<path d="M-167.2,198.3h-17.9v-2.2l0.6-0.4c1.8-1.1,4.6-2.9,8.3-6.1c3.6-3,7.3-6.3,7.3-11.3c0-4.6-3.2-6.7-7-6.7
		c-4.8,0-6.9,3.5-6.9,6.3c0,2.5,1.4,4.2,2,4.8l-3.3-0.4c-0.3-0.6-1-2.3-1-4.7c0-5,3.8-8.2,9.2-8.2c6.3,0,9.5,4,9.5,9
		c0,4.3-2.6,7.6-5.3,10.2c-3.7,3.6-8.7,6.8-9.8,7.4h14.2v2.3H-167.2z"/>
	<path d="M-152.6,198.9c-7.4,0-9.9-7.7-9.9-14.6c0-8.2,3.2-14.7,10-14.7c8.3,0,10,9.2,9.8,15.2
		C-142.8,191.9-145.6,198.9-152.6,198.9z M-152.5,171.7c-4.9,0-7.3,5.5-7.3,12.4c0,2.3,0.4,6.9,2.1,9.5c1.3,2,3.1,2.9,5.2,2.9
		c6.6,0,7.2-8.5,7.3-11.8C-145.2,177-147.7,171.7-152.5,171.7z"/>
	<path d="M-126.9,198.3h-2.4v-23c-1,0.8-2.7,1.1-5.1,1.1v-2.1c5.1-0.1,5.1-3,5.1-4.3h2.4V198.3z"/>
	<path d="M-98.7,176.7c-0.2-1.4-0.7-4.9-5.8-4.9c-2.8,0-5.9,1-7.4,6.4c-0.4,1.6-0.7,3.7-0.8,5.1c1.8-2.6,4.5-3.9,7.7-3.9
		c6.1,0,9.2,4.4,9.2,9.8c0,6-3.9,9.7-9.5,9.7c-9.8,0-9.9-10.5-9.9-13.8c0-3,0.3-8.2,3-11.8c2.1-2.9,4.9-3.7,7.7-3.7
		c4.3,0,7.2,2.1,8.4,6.3L-98.7,176.7z M-100.4,183.5c-1.7-1.8-3.9-1.9-4.8-1.9c-4,0-7.4,2.8-7.4,6.7c0,0.8,0.5,8.3,7.3,8.3
		c1.9,0,3.7-0.5,5.2-2.4c1.5-1.9,1.6-4,1.6-5.3C-98.5,187.7-98.7,185.3-100.4,183.5z"/>
	<path d="M190.4,198.3H188v-23c-1,0.8-2.7,1.1-5.1,1.1v-2.1c5.1-0.1,5.1-3,5.1-4.3h2.4V198.3z"/>
	<path d="M207,183.1c-1.6-0.6-4.4-2.5-4.4-6.2c0-4.1,3.2-7.5,8.8-7.5c5.8,0,9.1,3.1,9.1,7.3c0,3.5-2.2,5.8-4.9,6.4
		c2.8,0.8,5.7,3.4,5.7,7.3c0,4.2-3.2,8.3-9.7,8.3c-7.2,0-10-4.6-10-8.4c0-4.6,3.9-6.5,5.5-7.1c0.1,0,0.3,0,0.3-0.1
		C207.2,183.2,207.1,183.2,207,183.1z M211.4,184.4c-3.6,0-7.2,2-7.2,6c0,3.5,2.8,6.2,7.2,6.2c4.8,0,7.1-2.8,7.2-6
		C218.7,186.3,215,184.4,211.4,184.4z M216.1,173c-1.6-1.3-3.7-1.4-4.6-1.4c-4.8,0-6.3,2.9-6.3,5.3c0,2.8,2.4,5.2,6.4,5.2
		c4.2,0,6.4-2.4,6.3-5.3C217.9,174.4,216.5,173.3,216.1,173z"/>
	<path d="M246.6,186.6h-11.2V184h11.2V186.6z"/>
	<path d="M279.2,198.3h-17.9v-2.2l0.6-0.4c1.8-1.1,4.6-2.9,8.3-6.1c3.6-3,7.3-6.3,7.3-11.3c0-4.6-3.2-6.7-7-6.7
		c-4.8,0-6.9,3.5-6.9,6.3c0,2.5,1.4,4.2,2,4.8l-3.3-0.4c-0.3-0.6-1-2.3-1-4.7c0-5,3.8-8.2,9.2-8.2c6.3,0,9.5,4,9.5,9
		c0,4.3-2.6,7.6-5.3,10.2c-3.7,3.6-8.7,6.8-9.8,7.4h14.2v2.3H279.2z"/>
	<path d="M293.9,198.9c-7.4,0-9.9-7.7-9.9-14.6c0-8.2,3.2-14.7,10-14.7c8.3,0,10,9.2,9.8,15.2C303.7,191.9,300.9,198.9,293.9,198.9z
		 M293.9,171.7c-4.9,0-7.3,5.5-7.3,12.4c0,2.3,0.4,6.9,2.1,9.5c1.3,2,3.1,2.9,5.2,2.9c6.6,0,7.2-8.5,7.3-11.8
		C301.3,177,298.7,171.7,293.9,171.7z"/>
	<path d="M323.4,198.3H321V188c0-0.5,0-2.8-0.1-3c-0.2-2.2-1.3-3.9-4.4-3.9c-2.1,0-4.6,0.9-5.3,4.2c-0.3,1.2-0.3,2.3-0.3,4.9v8.2
		h-2.3v-28.3h2.3v12.2c1.1-2.3,3.5-3.5,5.9-3.5c2.8,0,5,1.4,6,3.6c0.6,1.4,0.6,3.1,0.6,5.1L323.4,198.3L323.4,198.3z"/>
</g>
<g>
	<path d="M240.1-157.7h-2.3v-28h2.3v12.4c1.4-2.9,3.8-3.7,5.8-3.7c5.1,0,7.9,4.7,7.9,10.2c0,4.4-1.9,9.6-7.7,9.6
		c-4.2,0-5.5-2.9-5.9-3.8V-157.7z M245.5-174.9c-0.8,0-1.6,0.2-2.4,0.6c-2.4,1.3-3.1,4.3-3.1,7.1c0,5.2,2,7.9,5.6,7.9
		c4.4,0,5.5-3.9,5.6-7.4C251.3-171.7,249.2-174.9,245.5-174.9z"/>
	<path d="M275.1-157.7c-2.9,0-4.9-0.2-5.1-3.1v-0.4c-0.1,0.2-0.1,0.3-0.2,0.4c-1.1,2.3-3.9,3.5-6.6,3.5c-4.7,0-6-3.2-6-5.2
		c0-4.4,4.5-5.4,10.4-6.8l2.3-0.5v-1c0-1.4,0-4.4-4.6-4.4c-4.6,0-4.9,2.6-5,4.6l-2.6-0.4c0.2-1,0.4-2.1,1.1-3.3
		c1.4-2.1,3.8-2.9,6.4-2.9c2.3,0,5.8,0.6,6.7,3.7c0.2,0.9,0.2,1.8,0.2,3.7v6.1c0,3.3,0,4.1,2.9,4.1V-157.7z M270-167.7l-1.2,0.3
		c-2.6,0.7-3.7,1-4.7,1.3c-2.1,0.6-4.5,1.3-4.5,3.7c0,1.5,1.1,3.1,3.8,3.1c1.8,0,3.8-0.8,5-2.1c1.5-1.5,1.5-3,1.6-4.9V-167.7z"/>
	<path d="M286.2-168.4c1.2,0.3,2.8,0.7,4,2c0.8,0.9,1.3,2.1,1.3,3.3c0,2.8-2.2,5.8-7.1,5.8c-2.4,0-4-0.8-4.8-1.4
		c-1.3-0.9-2.2-2.1-2.9-3.7l2.3-0.8c0.4,1.7,2.1,3.8,5.3,3.8c3.3,0,4.8-1.7,4.8-3.7c0-2.5-2.5-3.1-4.1-3.4c-0.7-0.2-1.5-0.3-2.3-0.5
		c-1.7-0.4-4.9-1.2-4.9-4.9c0-1.9,1.1-5.3,6.8-5.3c1.9,0,3.4,0.4,4.4,1.1c1.7,1,2.2,2.6,2.3,3.2l-2.3,0.6c-0.1-0.5-0.4-1.4-1.6-2.1
		c-0.8-0.5-1.9-0.7-3-0.7c-1.4,0-4.4,0.4-4.4,3.2c0,2.1,1.9,2.6,4,3.1L286.2-168.4z"/>
	<path d="M312.6-162.7c-0.3,0.7-0.8,1.7-1.8,2.9c-0.6,0.6-2.4,2.6-6.5,2.6c-6.3,0-9-4.8-9-10.1c0-6.3,4.1-9.8,8.7-9.8
		c5.7,0,8.7,5,8.5,9.9h-14.7c0,1,0,2.5,0.6,3.9c1.5,3.9,5,3.9,5.8,3.9c2.1,0,4.4-0.7,6.1-4L312.6-162.7z M309.9-169
		c-0.2-1.7-0.7-3.3-2-4.5c-0.8-0.7-2.1-1.4-3.9-1.4c-3.3,0-5.6,2.3-6.1,5.9H309.9z"/>
	<path d="M319.6-157.7h-2.3v-28h2.3V-157.7z"/>
</g>
</svg>
