<?xml version="1.0" encoding="utf-8"?>
<!-- Generator: Adobe Illustrator 18.0.0, SVG Export Plug-In . SVG Version: 6.00 Build 0)  -->
<!DOCTYPE svg PUBLIC "-//W3C//DTD SVG 1.1//EN" "http://www.w3.org/Graphics/SVG/1.1/DTD/svg11.dtd">
<svg version="1.1" id="Layer_1" xmlns="http://www.w3.org/2000/svg" xmlns:xlink="http://www.w3.org/1999/xlink" x="0px" y="0px"
	 viewBox="0 0 1280 720" enable-background="new 0 0 1280 720" xml:space="preserve">
<g>
	<path d="M-313.9-176.6h-2.4v-30.3h2.4v13.3c1.5-3.1,4.1-3.9,6.3-3.9c5.5,0,8.5,5.1,8.5,11c0,4.7-2,10.3-8.4,10.3
		c-4.5,0-6-3.1-6.4-4.1V-176.6z M-308-195.2c-0.9,0-1.8,0.2-2.6,0.6c-2.6,1.4-3.3,4.6-3.3,7.7c0,5.6,2.2,8.5,6,8.5c4.8,0,6-4.2,6-8
		C-301.8-191.8-304.1-195.2-308-195.2z"/>
	<path d="M-276.7-182c-0.3,0.7-0.9,1.9-1.9,3.1c-0.6,0.6-2.6,2.8-7,2.8c-6.8,0-9.7-5.2-9.7-10.9c0-6.8,4.5-10.5,9.4-10.5
		c6.2,0,9.4,5.4,9.2,10.7h-15.9c0,1.1,0,2.7,0.6,4.2c1.6,4.2,5.4,4.2,6.3,4.2c2.2,0,4.8-0.8,6.6-4.3L-276.7-182z M-279.6-188.9
		c-0.2-1.8-0.8-3.6-2.1-4.8c-0.9-0.8-2.2-1.5-4.2-1.5c-3.5,0-6.1,2.5-6.6,6.4H-279.6z"/>
	<path d="M-267.5-180.9c0,1.9,0.7,2.5,1.7,2.5c0.9,0,1.9-0.6,2.8-1.3v2.5c-1,0.7-2,1-3.3,1c-3.7,0-3.7-2.1-3.7-6v-12.7h-4.3v-2.1
		h4.3v-8.7h2.4v8.7h4.5v2.1h-4.5V-180.9z"/>
	<path d="M-241.2-176.6c-3.1,0-5.3-0.3-5.5-3.4v-0.4c-0.1,0.2-0.1,0.3-0.2,0.4c-1.2,2.5-4.2,3.8-7.1,3.8c-5.1,0-6.4-3.4-6.4-5.6
		c0-4.7,4.8-5.8,11.3-7.3l2.4-0.6v-1c0-1.5,0-4.7-5-4.7c-5,0-5.3,2.8-5.4,5l-2.8-0.5c0.2-1,0.4-2.3,1.2-3.5c1.5-2.3,4.1-3.2,6.9-3.2
		c2.5,0,6.3,0.6,7.2,4c0.3,1,0.3,1.9,0.3,3.9v6.6c0,3.6,0,4.5,3.1,4.4V-176.6z M-246.7-187.4l-1.3,0.3c-2.8,0.8-4,1.1-5.1,1.4
		c-2.3,0.6-4.9,1.4-4.9,3.9c0,1.6,1.2,3.4,4.1,3.4c1.9,0,4.1-0.9,5.4-2.2c1.6-1.6,1.7-3.2,1.7-5.3V-187.4z"/>
	<path d="M-235.2-176.6h-2.4v-30.3h2.4v13.3c1.5-3.1,4.1-3.9,6.3-3.9c5.5,0,8.5,5.1,8.5,11c0,4.7-2,10.3-8.4,10.3
		c-4.5,0-6-3.1-6.4-4.1V-176.6z M-229.4-195.2c-0.9,0-1.8,0.2-2.6,0.6c-2.6,1.4-3.3,4.6-3.3,7.7c0,5.6,2.2,8.5,6,8.5
		c4.8,0,6-4.2,6-8C-223.1-191.8-225.5-195.2-229.4-195.2z"/>
	<path d="M-197.5-176.6c-3.1,0-5.3-0.3-5.5-3.4v-0.4c-0.1,0.2-0.1,0.3-0.2,0.4c-1.2,2.5-4.2,3.8-7.1,3.8c-5.1,0-6.4-3.4-6.4-5.6
		c0-4.7,4.8-5.8,11.3-7.3l2.4-0.6v-1c0-1.5,0-4.7-5-4.7c-5,0-5.3,2.8-5.4,5l-2.8-0.5c0.2-1,0.4-2.3,1.2-3.5c1.5-2.3,4.1-3.2,6.9-3.2
		c2.5,0,6.3,0.6,7.2,4c0.3,1,0.3,1.9,0.3,3.9v6.6c0,3.6,0,4.5,3.1,4.4V-176.6z M-203-187.4l-1.3,0.3c-2.8,0.8-4,1.1-5.1,1.4
		c-2.3,0.6-4.9,1.4-4.9,3.9c0,1.6,1.2,3.4,4.1,3.4c1.9,0,4.1-0.9,5.4-2.2c1.6-1.6,1.7-3.2,1.7-5.3V-187.4z"/>
	<path d="M-185.5-188.1c1.3,0.3,3,0.8,4.3,2.2c0.9,1,1.4,2.3,1.4,3.6c0,3-2.4,6.3-7.7,6.3c-2.6,0-4.3-0.9-5.1-1.5
		c-1.5-1-2.4-2.3-3.1-4l2.5-0.9c0.5,1.8,2.2,4.1,5.7,4.1c3.5,0,5.2-1.9,5.2-4c0-2.7-2.7-3.3-4.4-3.6c-0.8-0.2-1.6-0.3-2.4-0.5
		c-1.9-0.4-5.3-1.3-5.3-5.3c0-2.1,1.2-5.7,7.3-5.7c2,0,3.6,0.5,4.8,1.2c1.8,1.1,2.4,2.8,2.5,3.5l-2.4,0.6c-0.1-0.6-0.4-1.5-1.8-2.3
		c-0.9-0.5-2-0.7-3.2-0.7c-1.5,0-4.7,0.4-4.7,3.4c0,2.2,2,2.8,4.3,3.3L-185.5-188.1z"/>
	<path d="M-157-182c-0.3,0.7-0.9,1.9-1.9,3.1c-0.6,0.6-2.6,2.8-7,2.8c-6.8,0-9.7-5.2-9.7-10.9c0-6.8,4.5-10.5,9.4-10.5
		c6.2,0,9.4,5.4,9.2,10.7h-15.9c0,1.1,0,2.7,0.6,4.2c1.6,4.2,5.4,4.2,6.3,4.2c2.2,0,4.8-0.8,6.6-4.3L-157-182z M-159.9-188.9
		c-0.2-1.8-0.8-3.6-2.1-4.8c-0.9-0.8-2.2-1.5-4.2-1.5c-3.5,0-6.1,2.5-6.6,6.4H-159.9z"/>
	<path d="M-27.3-188.1c1.3,0.3,3,0.8,4.3,2.2c0.9,1,1.4,2.3,1.4,3.6c0,3-2.4,6.3-7.7,6.3c-2.6,0-4.3-0.9-5.1-1.5
		c-1.5-1-2.4-2.3-3.1-4l2.5-0.9c0.5,1.8,2.2,4.1,5.7,4.1c3.5,0,5.2-1.9,5.2-4c0-2.7-2.7-3.3-4.4-3.6c-0.8-0.2-1.6-0.3-2.4-0.5
		c-1.9-0.4-5.3-1.3-5.3-5.3c0-2.1,1.2-5.7,7.3-5.7c2,0,3.6,0.5,4.8,1.2c1.8,1.1,2.4,2.8,2.5,3.5l-2.4,0.6c-0.1-0.6-0.4-1.5-1.8-2.3
		c-0.9-0.5-2-0.7-3.2-0.7c-1.5,0-4.7,0.4-4.7,3.4c0,2.2,2,2.8,4.3,3.3L-27.3-188.1z"/>
	<path d="M-12-180.9c0,1.9,0.7,2.5,1.7,2.5c0.9,0,1.9-0.6,2.8-1.3v2.5c-1,0.7-2,1-3.3,1c-3.7,0-3.7-2.1-3.7-6v-12.7h-4.3v-2.1h4.3
		v-8.7h2.4v8.7h4.5v2.1H-12V-180.9z"/>
	<path d="M-1.5-181.6v5h-3.4v-5H-1.5z"/>
	<path d="M17.7-197.1v18c0,1.9,0,7.7-0.1,9.3c-0.1,1.2-0.3,4.2-4.1,4.2c-1.2,0-2.5-0.3-3.6-0.9v-2.4c1.6,1,3,1,3.3,1
		c0.9,0,1.5-0.3,1.7-1.1c0.2-0.5,0.2-0.6,0.2-6.8v-3.7v-17.6H17.7z M17.7-201.9h-2.5v-3.9h2.5V-201.9z"/>
	<path d="M32-176.1c-6,0-9.2-4.7-9.2-10.5c0-5.3,2.7-11,9.3-11c6.5,0,9.2,5.3,9.3,10.6C41.4-180.7,37.8-176.1,32-176.1z M32.1-195.4
		c-1.8,0-3.6,0.7-4.7,2.1c-1.8,2.1-1.9,5.1-1.9,6.8c0,5.8,3,8.2,6.5,8.2c4.5,0,6.6-3.6,6.6-8.3C38.6-187.8,38.7-195.4,32.1-195.4z"
		/>
	<path d="M62.3-176.6h-2.5v-11.1c0-0.5,0-3-0.1-3.2c-0.2-2.4-1.4-4.2-4.7-4.2c-2.3,0-4.9,1-5.7,4.5c-0.3,1.3-0.3,2.5-0.3,5.2v8.8
		h-2.5v-30.3H49v13.1c1.2-2.5,3.8-3.7,6.3-3.7c3,0,5.4,1.5,6.4,3.9c0.6,1.5,0.6,3.3,0.6,5.5V-176.6z"/>
	<path d="M86.7-176.6c-3.1,0-5.3-0.3-5.5-3.4v-0.4c-0.1,0.2-0.1,0.3-0.2,0.4c-1.2,2.5-4.2,3.8-7.1,3.8c-5.1,0-6.4-3.4-6.4-5.6
		c0-4.7,4.8-5.8,11.3-7.3l2.4-0.6v-1c0-1.5,0-4.7-5-4.7c-5,0-5.3,2.8-5.4,5l-2.8-0.5c0.2-1,0.4-2.3,1.2-3.5c1.5-2.3,4.1-3.2,6.9-3.2
		c2.5,0,6.3,0.6,7.2,4c0.3,1,0.3,1.9,0.3,3.9v6.6c0,3.6,0,4.5,3.1,4.4V-176.6z M81.2-187.4l-1.3,0.3c-2.8,0.8-4,1.1-5.1,1.4
		c-2.3,0.6-4.9,1.4-4.9,3.9c0,1.6,1.2,3.4,4.1,3.4c1.9,0,4.1-0.9,5.4-2.2c1.6-1.6,1.7-3.2,1.7-5.3V-187.4z"/>
	<path d="M106.1-176.6h-2.5v-10.6c0-4,0-5.1-0.8-6.3c-0.5-0.7-1.7-1.8-4-1.8c-2.3,0-3.7,0.9-4.8,2.3c-1.3,1.7-1.3,3-1.3,7.3v9h-2.5
		V-197h2.5v3.6c0.7-2.1,2.7-4.1,6.4-4.1c1.1,0,3.8,0.1,5.6,2.4c1.3,1.8,1.4,3.4,1.4,7.8V-176.6z"/>
	<path d="M128.4-176.6h-2.5v-10.6c0-4,0-5.1-0.8-6.3c-0.5-0.7-1.7-1.8-4-1.8c-2.3,0-3.7,0.9-4.8,2.3c-1.3,1.7-1.3,3-1.3,7.3v9h-2.5
		V-197h2.5v3.6c0.7-2.1,2.7-4.1,6.4-4.1c1.1,0,3.8,0.1,5.6,2.4c1.3,1.8,1.4,3.4,1.4,7.8V-176.6z"/>
	<path d="M143.4-188.1c1.3,0.3,3,0.8,4.3,2.2c0.9,1,1.4,2.3,1.4,3.6c0,3-2.4,6.3-7.7,6.3c-2.6,0-4.3-0.9-5.1-1.5
		c-1.5-1-2.4-2.3-3.1-4l2.5-0.9c0.5,1.8,2.2,4.1,5.7,4.1c3.5,0,5.2-1.9,5.2-4c0-2.7-2.7-3.3-4.4-3.6c-0.8-0.2-1.6-0.3-2.4-0.5
		c-1.9-0.4-5.3-1.3-5.3-5.3c0-2.1,1.2-5.7,7.3-5.7c2,0,3.6,0.5,4.8,1.2c1.8,1.1,2.4,2.8,2.5,3.5l-2.4,0.6c-0.1-0.6-0.4-1.5-1.8-2.3
		c-0.9-0.5-2-0.7-3.2-0.7c-1.5,0-4.7,0.4-4.7,3.4c0,2.2,2,2.8,4.3,3.3L143.4-188.1z"/>
	<path d="M164.9-189.2h-12v-2.8h12V-189.2z"/>
	<path d="M172.3-176.6h-2.5v-20.5h2.5v3.3c1.3-2.7,3.4-3.6,6-3.6c0.6,0,0.9,0,1.4,0.1v2.3c-0.8-0.1-0.9-0.1-1.5-0.1s-2.7,0-4.2,1.6
		c-1.6,1.8-1.6,3.9-1.6,8.1V-176.6z"/>
	<path d="M185.6-201.9h-2.5v-3.9h2.5V-201.9z M185.6-176.6h-2.5v-20.5h2.5V-176.6z"/>
	<path d="M207.9-176.6h-2.5v-10.6c0-4,0-5.1-0.8-6.3c-0.5-0.7-1.7-1.8-4-1.8c-2.3,0-3.7,0.9-4.8,2.3c-1.3,1.7-1.3,3-1.3,7.3v9h-2.5
		V-197h2.5v3.6c0.7-2.1,2.7-4.1,6.4-4.1c1.1,0,3.8,0.1,5.6,2.4c1.3,1.8,1.4,3.4,1.4,7.8V-176.6z"/>
	<path d="M231.2-178.8c0,5.3,0,8.1-2.1,10.2c-1.3,1.4-3.8,2.4-7.1,2.4c-1.4,0-4-0.2-6.1-1.8c-2.2-1.7-2.6-3.9-2.7-5.5l2.6-0.5
		c0.3,2.2,0.9,5.6,6.5,5.6c3.9,0,5.6-1.6,6.1-4.5c0.2-1.1,0.2-5.3,0.3-6.6v-1c-0.2,0.7-0.4,1.3-1.2,2.2c-1.5,1.6-3.6,2.2-5.6,2.2
		c-5.9,0-8.9-4.9-8.9-10.8c0-6.9,3.9-10.5,8.9-10.5c3.6,0,6,2,6.7,4.2v-3.8h2.4V-178.8z M222.3-195.3c-1.8,0-3.6,0.7-4.8,2.1
		c-0.9,1.1-1.9,3.1-1.9,6.3c0,2.9,0.7,5.2,1.9,6.6c1.5,1.8,3.5,2,4.6,2c6.3,0,6.4-5.8,6.5-8.2C228.6-189.8,228.3-195.3,222.3-195.3z
		"/>
	<path d="M261.1-176.6h-2.6v-24.6c-1.1,0.9-2.9,1.2-5.5,1.2v-2.3c5.5-0.1,5.5-3.2,5.5-4.6h2.6V-176.6z"/>
	<path d="M273.5-199.3c0.5-2,2.1-8.2,10-8.2c5,0,9.4,2.6,9.4,8.4c0,0.8,0,3.2-1.9,4.8c-1.3,1.3-3,1.5-4.8,1.8
		c4.9,0.2,7.2,3.3,7.2,7.4c0,5.2-3.8,9-10.1,9c-3.1,0-5.7-1-7.4-2.6c-1.9-1.7-2.8-4.2-3.1-6.7l2.9-0.9c-0.1,5.8,3.7,7.8,7.7,7.8
		c2.1,0,4.2-0.5,5.6-2c1.1-1.2,1.6-2.7,1.6-4.3c0-2.2-0.8-3.8-1.8-4.7c-1.7-1.6-3.9-1.6-6.1-1.6h-4.2v-2.4h3.6c1.4,0,2.7,0,4.2-0.4
		c2.1-0.6,3.8-2.2,3.8-5.2c0-3.3-2.4-6-6.7-6c-4.8,0-7.1,3.5-7,6.7L273.5-199.3z"/>
	<path d="M298.4-199.3c0.5-2,2.1-8.2,10-8.2c5,0,9.4,2.6,9.4,8.4c0,0.8,0,3.2-1.9,4.8c-1.3,1.3-3,1.5-4.8,1.8
		c4.9,0.2,7.2,3.3,7.2,7.4c0,5.2-3.8,9-10.1,9c-3.1,0-5.7-1-7.4-2.6c-1.9-1.7-2.8-4.2-3.1-6.7l2.9-0.9c-0.1,5.8,3.7,7.8,7.7,7.8
		c2.1,0,4.2-0.5,5.6-2c1.1-1.2,1.6-2.7,1.6-4.3c0-2.2-0.8-3.8-1.8-4.7c-1.7-1.6-3.9-1.6-6.1-1.6h-4.2v-2.4h3.6c1.4,0,2.7,0,4.2-0.4
		c2.1-0.6,3.8-2.2,3.8-5.2c0-3.3-2.4-6-6.7-6c-4.8,0-7.1,3.5-7,6.7L298.4-199.3z"/>
	<path d="M-307.1,209c-7.9,0-10.6-8.3-10.6-15.7c0-8.8,3.4-15.8,10.7-15.8c8.9,0,10.7,9.9,10.5,16.3
		C-296.6,201.5-299.6,209-307.1,209z M-307.1,179.9c-5.2,0-7.8,5.9-7.8,13.3c0,2.5,0.4,7.4,2.2,10.2c1.4,2.1,3.3,3.1,5.6,3.1
		c7.1,0,7.7-9.1,7.8-12.7C-299.2,185.5-301.9,179.9-307.1,179.9z"/>
	<path d="M-272.8,208.4H-292V206l0.6-0.4c1.9-1.2,4.9-3.1,8.9-6.5c3.9-3.2,7.8-6.7,7.8-12.1c0-4.9-3.4-7.2-7.5-7.2
		c-5.1,0-7.4,3.7-7.4,6.8c0,2.7,1.5,4.5,2.1,5.1l-3.5-0.4c-0.3-0.6-1.1-2.5-1.1-5c0-5.4,4.1-8.8,9.9-8.8c6.7,0,10.2,4.3,10.2,9.6
		c0,4.6-2.8,8.1-5.7,10.9c-4,3.9-9.3,7.3-10.5,7.9h15.2V208.4z"/>
	<path d="M-264.3,203.4v5h-3.4v-5H-264.3z"/>
	<path d="M-250,209c-7.9,0-10.6-8.3-10.6-15.7c0-8.8,3.4-15.8,10.7-15.8c8.9,0,10.7,9.9,10.5,16.3C-239.4,201.5-242.4,209-250,209z
		 M-249.9,179.9c-5.2,0-7.8,5.9-7.8,13.3c0,2.5,0.4,7.4,2.2,10.2c1.4,2.1,3.3,3.1,5.6,3.1c7.1,0,7.7-9.1,7.8-12.7
		C-242,185.5-244.8,179.9-249.9,179.9z"/>
	<path d="M-216.4,185.2c-0.2-1.5-0.8-5.3-6.2-5.3c-3,0-6.3,1.1-7.9,6.9c-0.4,1.7-0.8,4-0.9,5.5c1.9-2.8,4.8-4.2,8.2-4.2
		c6.5,0,9.9,4.7,9.9,10.5c0,6.4-4.2,10.4-10.2,10.4c-10.5,0-10.6-11.2-10.6-14.8c0-3.2,0.3-8.8,3.2-12.7c2.3-3.1,5.2-4,8.3-4
		c4.6,0,7.7,2.3,9,6.7L-216.4,185.2z M-218.2,192.5c-1.8-1.9-4.2-2-5.1-2c-4.3,0-7.9,3-7.9,7.2c0,0.9,0.5,8.9,7.8,8.9
		c2,0,4-0.5,5.6-2.6c1.6-2,1.7-4.3,1.7-5.7C-216.1,197-216.3,194.4-218.2,192.5z"/>
	<path d="M-206.3,203.4v5h-3.4v-5H-206.3z"/>
	<path d="M-182.6,208.4h-19.2V206l0.6-0.4c1.9-1.2,4.9-3.1,8.9-6.5c3.9-3.2,7.8-6.7,7.8-12.1c0-4.9-3.4-7.2-7.5-7.2
		c-5.1,0-7.4,3.7-7.4,6.8c0,2.7,1.5,4.5,2.1,5.1l-3.5-0.4c-0.3-0.6-1.1-2.5-1.1-5c0-5.4,4.1-8.8,9.9-8.8c6.7,0,10.2,4.3,10.2,9.6
		c0,4.6-2.8,8.1-5.7,10.9c-4,3.9-9.3,7.3-10.5,7.9h15.2V208.4z"/>
	<path d="M-166.9,209c-7.9,0-10.6-8.3-10.6-15.7c0-8.8,3.4-15.8,10.7-15.8c8.9,0,10.7,9.9,10.5,16.3
		C-156.4,201.5-159.4,209-166.9,209z M-166.8,179.9c-5.2,0-7.8,5.9-7.8,13.3c0,2.5,0.4,7.4,2.2,10.2c1.4,2.1,3.3,3.1,5.6,3.1
		c7.1,0,7.7-9.1,7.8-12.7C-159,185.5-161.7,179.9-166.8,179.9z"/>
	<path d="M-139.4,208.4h-2.6v-24.6c-1.1,0.9-2.9,1.2-5.5,1.2v-2.3c5.5-0.1,5.5-3.2,5.5-4.6h2.6V208.4z"/>
	<path d="M-109.2,185.2c-0.2-1.5-0.8-5.3-6.2-5.3c-3,0-6.3,1.1-7.9,6.9c-0.4,1.7-0.8,4-0.9,5.5c1.9-2.8,4.8-4.2,8.2-4.2
		c6.5,0,9.9,4.7,9.9,10.5c0,6.4-4.2,10.4-10.2,10.4c-10.5,0-10.6-11.2-10.6-14.8c0-3.2,0.3-8.8,3.2-12.7c2.3-3.1,5.2-4,8.3-4
		c4.6,0,7.7,2.3,9,6.7L-109.2,185.2z M-111,192.5c-1.8-1.9-4.2-2-5.1-2c-4.3,0-7.9,3-7.9,7.2c0,0.9,0.5,8.9,7.8,8.9
		c2,0,4-0.5,5.6-2.6c1.6-2,1.7-4.3,1.7-5.7C-109,197-109.2,194.4-111,192.5z"/>
	<path d="M177.9,208.4h-2.6v-24.6c-1.1,0.9-2.9,1.2-5.5,1.2v-2.3c5.5-0.1,5.5-3.2,5.5-4.6h2.6V208.4z"/>
	<path d="M195.7,192.1c-1.7-0.6-4.7-2.7-4.7-6.6c0-4.4,3.4-8,9.4-8c6.2,0,9.7,3.3,9.7,7.8c0,3.7-2.4,6.2-5.2,6.9
		c3,0.9,6.1,3.6,6.1,7.8c0,4.5-3.4,8.9-10.4,8.9c-7.7,0-10.7-4.9-10.7-9c0-4.9,4.2-7,5.9-7.6c0.1,0,0.3,0,0.3-0.1
		C195.9,192.2,195.8,192.2,195.7,192.1z M200.4,193.5c-3.9,0-7.7,2.1-7.7,6.4c0,3.8,3,6.6,7.7,6.6c5.1,0,7.6-3,7.7-6.4
		C208.2,195.5,204.2,193.5,200.4,193.5z M205.4,181.3c-1.7-1.4-4-1.5-4.9-1.5c-5.1,0-6.8,3.1-6.8,5.7c0,3,2.6,5.6,6.9,5.6
		c4.5,0,6.9-2.6,6.8-5.7C207.3,182.8,205.8,181.6,205.4,181.3z"/>
	<path d="M238.1,195.8h-12v-2.8h12V195.8z"/>
	<path d="M273.1,208.4h-19.2V206l0.6-0.4c1.9-1.2,4.9-3.1,8.9-6.5c3.9-3.2,7.8-6.7,7.8-12.1c0-4.9-3.4-7.2-7.5-7.2
		c-5.1,0-7.4,3.7-7.4,6.8c0,2.7,1.5,4.5,2.1,5.1l-3.5-0.4c-0.3-0.6-1.1-2.5-1.1-5c0-5.4,4.1-8.8,9.9-8.8c6.7,0,10.2,4.3,10.2,9.6
		c0,4.6-2.8,8.1-5.7,10.9c-4,3.9-9.3,7.3-10.5,7.9h15.2V208.4z"/>
	<path d="M288.8,209c-7.9,0-10.6-8.3-10.6-15.7c0-8.8,3.4-15.8,10.7-15.8c8.9,0,10.7,9.9,10.5,16.3C299.3,201.5,296.3,209,288.8,209
		z M288.8,179.9c-5.2,0-7.8,5.9-7.8,13.3c0,2.5,0.4,7.4,2.2,10.2c1.4,2.1,3.3,3.1,5.6,3.1c7.1,0,7.7-9.1,7.8-12.7
		C296.7,185.5,294,179.9,288.8,179.9z"/>
	<path d="M320.4,208.4h-2.5v-11.1c0-0.5,0-3-0.1-3.2c-0.2-2.4-1.4-4.2-4.7-4.2c-2.3,0-4.9,1-5.7,4.5c-0.3,1.3-0.3,2.5-0.3,5.2v8.8
		h-2.5v-30.3h2.5v13.1c1.2-2.5,3.8-3.7,6.3-3.7c3,0,5.4,1.5,6.4,3.9c0.6,1.5,0.6,3.3,0.6,5.5V208.4z"/>
</g>
</svg>
