<?xml version="1.0" encoding="utf-8"?>
<!-- Generator: Adobe Illustrator 18.0.0, SVG Export Plug-In . SVG Version: 6.00 Build 0)  -->
<!DOCTYPE svg PUBLIC "-//W3C//DTD SVG 1.1//EN" "http://www.w3.org/Graphics/SVG/1.1/DTD/svg11.dtd">
<svg version="1.1" id="Layer_1" xmlns="http://www.w3.org/2000/svg" xmlns:xlink="http://www.w3.org/1999/xlink" x="0px" y="0px"
	 viewBox="0 0 1280 720" enable-background="new 0 0 1280 720" xml:space="preserve">
<g>
	<path d="M-232.1-32.1h-60.5L-270-130h18.4l-18.8,81.7h41.9L-232.1-32.1z"/>
	<path d="M-137.5-32.1h-18.4l-1.9-20.3h-35.7l-10.8,20.3h-20.1l55.9-97.9h20.5L-137.5-32.1z M-159.1-68l-3.2-43.5L-185.1-68H-159.1z
		"/>
	<path d="M-91.8-77c-6.5-2.4-22.8-8.3-22.8-25.5c0-14.8,13.7-29.1,36.8-29.1c17.3,0,30.2,7.6,35.6,20.3l-15.8,8.2
		c-2.8-7.9-9.8-12.9-20.5-12.9c-11.9,0-16.6,6.2-16.6,10.9c0,6.9,6.4,9.3,9.4,10.5c1.9,0.7,11.4,4,13.4,4.7
		c6.6,2.5,23.9,8.7,23.9,26.7c0,18.1-17,32.5-39.6,32.5c-9.7,0-19.4-2.8-26-7.5c-9.8-6.9-12-16.5-12.9-20.1l17.2-6.5
		c2.4,13,12.5,17.7,23.4,17.7c12.6,0,18.3-7.1,18.3-13.8c0-7.8-7.2-10.5-13.3-12.7L-91.8-77z"/>
	<path d="M32.2-32.1h-73.8l22.6-97.7h66.4l-3.6,15.9H-4.6L-10-90.8h46.1l-3.6,15.6h-46.1l-6.2,27.3h55.6L32.2-32.1z"/>
	<path d="M126.2-32.1h-19.1L95.4-70.6H75.1l-8.9,38.5H48l22.6-97.7h29.2c10.8,0,16.7,0.1,22.3,2.1c9.3,3.2,16.1,11.5,16.1,23.9
		c0,15.2-9.8,28.7-24.8,31L126.2-32.1z M78.4-85h16.7c6,0,9.8-0.1,13.1-1.2c9.4-3.2,10.8-12.3,10.8-15.9c0-6-3.5-10-7.6-11.5
		c-2.8-1-6.4-1-12.5-1H85.3L78.4-85z"/>
	<path d="M228.9-32.1h-14.3v-33.2h-33.4v-14.1h33.4v-33.4h14.3v33.4h33.2v14.1h-33.2V-32.1z"/>
	<path d="M-232.1,134h-60.5l22.6-97.9h18.4l-18.8,81.7h41.9L-232.1,134z"/>
	<path d="M-146.5,134h-73.8l22.6-97.7h66.4l-3.6,15.9h-48.4l-5.4,23.1h46.1l-3.6,15.6h-46.1l-6.2,27.3h55.6L-146.5,134z"/>
	<path d="M-44.8,36.1l-3.7,16.1h-25.3L-92.7,134h-18.5l18.8-81.8h-28l3.7-16.1H-44.8z"/>
	<path d="M47,36.1l-3.7,16.1H17.9L-0.9,134h-18.5l18.8-81.8h-28l3.7-16.1H47z"/>
	<path d="M109.7,134H35.9l22.6-97.7h66.4l-3.6,15.9H72.9l-5.4,23.1h46.1L110,90.9H63.9l-6.2,27.3h55.6L109.7,134z"/>
	<path d="M203.7,134h-19.1L173,95.5h-20.3l-8.9,38.5h-18.3l22.6-97.7h29.2c10.8,0,16.7,0.1,22.3,2.1c9.3,3.2,16.1,11.5,16.1,23.9
		c0,15.2-9.8,28.7-24.8,31L203.7,134z M155.9,81.1h16.7c6,0,9.8-0.1,13.1-1.2c9.4-3.2,10.8-12.3,10.8-15.9c0-6-3.5-10-7.6-11.5
		c-2.8-1-6.4-1-12.5-1h-13.7L155.9,81.1z"/>
	<path d="M248.5,89.1c-6.5-2.4-22.8-8.3-22.8-25.5c0-14.8,13.7-29.1,36.8-29.1c17.3,0,30.2,7.6,35.6,20.3l-15.8,8.2
		c-2.8-7.9-9.8-12.9-20.5-12.9c-11.9,0-16.6,6.2-16.6,10.9c0,6.9,6.4,9.3,9.4,10.5c1.9,0.7,11.4,4,13.4,4.7
		c6.6,2.5,23.9,8.7,23.9,26.7c0,18.1-17,32.5-39.6,32.5c-9.7,0-19.4-2.8-26-7.5c-9.8-6.9-12-16.5-12.9-20.1l17.2-6.5
		c2.4,13,12.5,17.7,23.4,17.7c12.6,0,18.3-7.1,18.3-13.8c0-7.8-7.2-10.5-13.3-12.7L248.5,89.1z"/>
</g>
</svg>
